<svg xmlns="http://www.w3.org/2000/svg" viewBox="0 0 800 800" width="800" height="800">
  <g stroke="#0F172A" stroke-width="14" stroke-linecap="round" stroke-linejoin="round" fill="none">
    <!-- Horse Profile on Right -->
    <path d="M 460 428 C 520 328, 580 268, 640 248 C 670 258, 690 298, 670 358 C 620 448, 560 548, 500 588" fill="#FFFFFF"/>
    <path d="M 640 248 L 630 188 L 660 228 Z" fill="#FFFFFF"/>
    <circle cx="650" cy="288" r="6" fill="#0F172A"/>
    
    <!-- Flowing Mane (highlighted with sparkles) -->
    <path d="M 580 298 C 500 278, 460 348, 400 368" stroke="#FF6F59" stroke-width="16"/>
    <path d="M 540 358 C 480 348, 440 418, 380 438" stroke="#FF6F59" stroke-width="16"/>
    <path d="M 500 428 C 450 418, 420 488, 360 508" stroke="#FF6F59" stroke-width="16"/>
    
    <!-- Sparkles on Mane -->
    <path d="M 420 280 L 420 310 M 405 295 L 435 295" stroke="#FF6F59" stroke-width="6"/>
    <path d="M 350 370 L 350 400 M 335 385 L 365 385" stroke="#FF6F59" stroke-width="6"/>

    <!-- Cute Cat on Left Grooming with Comb -->
    <ellipse cx="260" cy="500" rx="100" ry="90" fill="#FFFFFF"/>
    <ellipse cx="260" cy="360" rx="90" ry="80" fill="#FFFFFF"/>
    <!-- Cat Ears -->
    <path d="M 195 300 L 180 230 L 235 280 Z" fill="#FFFFFF"/>
    <path d="M 325 300 L 340 230 L 285 280 Z" fill="#FFFFFF"/>
    <!-- Happy Face -->
    <path d="M 220 365 Q 235 350 250 365" stroke-width="8"/>
    <path d="M 270 365 Q 285 350 300 365" stroke-width="8"/>
    <polygon points="255,375 265,375 260,382" fill="#0F172A"/>
    <path d="M 250 385 Q 260 395 270 385" stroke-width="6"/>
    <!-- Whiskers -->
    <path d="M 190 370 L 150 365 M 190 380 L 150 385"/>
    <path d="M 330 370 L 370 365 M 330 380 L 370 385"/>
    <!-- Comb Brush in Paw -->
    <ellipse cx="340" cy="460" rx="22" ry="20" fill="#FFFFFF"/>
    <rect x="465" y="380" width="30" height="70" rx="6" fill="#0F172A"/>
    <path d="M 495 395 L 520 395 M 495 415 L 520 415 M 495 435 L 520 435" stroke-width="8"/>
  </g>
</svg>